<svg width="32" height="32" viewBox="172 20 210 210" fill="none" xmlns="http://www.w3.org/2000/svg">
  <path d="M 235 60 C 205 60 208 115 197 125 C 208 135 205 190 235 190" 
        stroke="#89F336" stroke-width="22" stroke-linecap="round" fill="none"/>
  
  <path fill-rule="evenodd" clip-rule="evenodd" d="
    M 275 57.5 L 310 57.5 
    C 400 57.5, 400 192.5, 310 192.5 
    L 275 192.5 Q 260 192.5, 260 177.5 
    L 260 72.5 Q 260 57.5, 275 57.5 Z 
    
    M 300 92.5 L 310 92.5 
    C 355 92.5, 355 157.5, 310 157.5 
    L 300 157.5 Q 295 157.5, 295 152.5 
    L 295 97.5 Q 295 92.5, 300 92.5 Z" 
    fill="#f0ffe4"/>
</svg>